<?xml version="1.0"?><svg width="128" height="128" xmlns="http://www.w3.org/2000/svg">
 <title>Orange Sale Tag</title>
 <metadata id="metadata7">image/svg+xml</metadata>
 <g>
  <title>Layer 1</title>
  <g id="g3685">
   <g opacity="0.466346" id="g3676">
    <path d="m72.380501,25.822599c-19.728001,13.689199 -39.465302,27.364901 -59.187501,41.062502c10.2595,14.792297 20.5109,29.590202 30.781301,44.374901c19.946098,-13.8461 39.917599,-27.6567 59.8437,-41.531204c0.973,-7.658699 3.656998,-15.730698 3.594002,-23.156197c-4.351006,-5.5718 -7.7509,-12.622402 -12.687805,-17.281301c-7.368996,-0.9065 -15.219795,-3.5875 -22.343697,-3.4687zm19.3125,16.343702c4.456398,-0.357002 3.737495,7.321899 -0.6875,5.875c-3.2024,-0.829102 -2.617203,-5.743504 0.6875,-5.875z" fill-rule="evenodd" fill="#3f7f00" opacity="0.346154" id="path3624"/>
    <path d="m72.724197,27.0728c-19.279697,13.378002 -38.570297,26.740002 -57.843698,40.125c9.7984,14.127998 19.598901,28.254997 29.406201,42.375198c19.468498,-13.513199 38.960598,-26.993195 58.4063,-40.531197c1.026001,-7.540001 3.446999,-15.245003 3.469002,-22.126003c-4.248001,-5.549999 -7.591805,-12.161999 -12.062706,-16.499998c-7.294098,-0.962 -14.782997,-3.374001 -21.375099,-3.343zm18.875099,13.875c0.011002,-0.000999 0.019905,0.000999 0.031006,0c1.443001,-0.105 2.723999,0.526001 3.437897,1.467999c0.719002,0.950001 0.927002,2.108002 0.812004,3.219002c-0.114906,1.111 -0.572906,2.237 -1.499901,3c-0.913101,0.751999 -2.292,0.997002 -3.687103,0.563l0,0.031002c-0.024902,-0.006001 -0.039001,-0.025002 -0.062897,-0.031002c-2.131104,-0.592899 -3.151001,-2.688 -2.937103,-4.5c0.215103,-1.824001 1.675102,-3.645 3.906097,-3.75l0,0z" fill-rule="evenodd" fill="#3f7f00" opacity="0.346154" id="path3670"/>
    <path d="m72.974297,27.8848c-18.978798,13.168999 -37.965595,26.326 -56.937496,39.500004c9.4835,13.674995 18.9459,27.364998 28.437401,41.031197c19.162998,-13.300201 38.360996,-26.550201 57.499798,-39.874199c1.056999,-7.428001 3.302002,-14.858002 3.375,-21.376003c-4.191002,-5.533997 -7.493698,-11.861 -11.686798,-15.999998c-7.204002,-0.990999 -14.454903,-3.247 -20.687904,-3.281zm18.561905,12.25c0.022095,-0.001999 0.042,0.000999 0.063095,0c1.668007,-0.111 3.260002,0.639 4.124901,1.780998c0.876106,1.157001 1.134102,2.521 1,3.813004c-0.133995,1.292 -0.674896,2.593998 -1.811897,3.530998c-1.109001,0.914001 -2.811996,1.195999 -4.407097,0.719002l0,0.030998c-0.023903,-0.006001 -0.037903,-0.023998 -0.061905,-0.030998c-0.021095,-0.007 -0.042,0.007 -0.062996,0l0,-0.031002c-2.4841,-0.724998 -3.75,-3.220001 -3.500099,-5.343998c0.253098,-2.146 2.033096,-4.330002 4.655998,-4.469002l0,0z" fill-rule="evenodd" fill="#3f7f00" opacity="0.346154" id="path3672"/>
   </g>
   <path d="m94.702599,49.2873c-2.268997,1.573799 -5.3843,1.0103 -6.958099,-1.258801c-1.573799,-2.269001 -1.010201,-5.3843 1.258804,-6.958099c2.268997,-1.573799 5.3843,-1.010201 6.958099,1.258801c1.573799,2.2691 1.010201,5.3843 -1.258804,6.958099zm-21.206398,-21.8011l20.874397,3.7764l11.398399,16.433899l-3.776001,20.874401l-57.518795,39.895103l-28.496501,-41.084702l57.5185,-39.895102z" fill-rule="evenodd" fill="#ff7f00" id="path2820"/>
   <path d="m111.786003,26.729c-1.105003,0.171999 -2.442001,0.705999 -4,1.5c-3.116005,1.587 -7.044006,4.16 -10.842606,6.719002l0.562004,0.842999c3.792595,-2.554001 7.690598,-5.113001 10.718597,-6.656c1.514,-0.771 2.821999,-1.298 3.719002,-1.437c0.447998,-0.07 0.768997,-0.047001 0.968002,0.031c0.199997,0.077 0.298996,0.164999 0.375,0.406c0.084999,0.264999 0.007996,0.837999 -0.375,1.562c-0.383003,0.725 -1.017006,1.587999 -1.843002,2.532c-1.652,1.887001 -4.038002,4.055 -6.594002,6.030998c-2.556999,1.976002 -5.300598,3.755001 -7.624596,4.906002c-1.162003,0.576 -2.226006,0.985001 -3.094002,1.188c-0.608002,0.140999 -0.942001,0.056999 -1.312004,0c0.560005,-1.23 1.283005,-2.474998 1.718002,-3.625l-0.936996,-0.344002c-0.444,1.173 -1.422005,2.669003 -2.031006,4.25l-0.156998,0.406002l0.406998,0.218998c0.703003,0.352001 1.547005,0.323002 2.531006,0.094002c0.983994,-0.23 2.104996,-0.684002 3.311996,-1.282001c2.414001,-1.195 5.183601,-3.022999 7.781601,-5.030998c2.597,-2.007 5.032997,-4.195 6.75,-6.156002c0.858002,-0.980999 1.527,-1.883999 1.968002,-2.718998c0.441994,-0.834 0.694,-1.605 0.468994,-2.312c-0.153,-0.482 -0.522995,-0.889 -0.968994,-1.063c-0.445,-0.174 -0.947006,-0.149 -1.5,-0.062l0,0z" stroke-width="1px" fill="#3f7f00" id="path2830"/>
  </g>
 </g>
</svg>